# Blender v2.79 (sub 0) OBJ File: ''
# www.blender.org
mtllib bRow.mtl
o Cylinder
v 0.421199 1.374902 1.145883
v 0.421199 2.638174 1.145883
v 0.425637 1.374902 1.146320
v 0.425637 2.638174 1.146320
v 0.429903 1.374902 1.147614
v 0.429903 2.638174 1.147614
v 0.433836 1.374902 1.149716
v 0.433836 2.638174 1.149716
v 0.437283 1.374902 1.152545
v 0.437283 2.638174 1.152545
v 0.440112 1.374902 1.155992
v 0.440112 2.638174 1.155992
v 0.442214 1.374902 1.159924
v 0.442214 2.638174 1.159924
v 0.443508 1.374902 1.164191
v 0.443508 2.638174 1.164191
v 0.443945 1.374902 1.168629
v 0.443945 2.638174 1.168629
v 0.443508 1.374902 1.173066
v 0.443508 2.638174 1.173066
v 0.442214 1.374902 1.177333
v 0.442214 2.638174 1.177333
v 0.440112 1.374902 1.181266
v 0.440112 2.638174 1.181266
v 0.437283 1.374902 1.184713
v 0.437283 2.638174 1.184713
v 0.433836 1.374902 1.187541
v 0.433836 2.638174 1.187541
v 0.429903 1.374902 1.189643
v 0.429903 2.638174 1.189643
v 0.425637 1.374902 1.190938
v 0.425637 2.638174 1.190938
v 0.421199 1.374902 1.191375
v 0.421199 2.638174 1.191375
v 0.416761 1.374902 1.190938
v 0.416761 2.638174 1.190938
v 0.412494 1.374902 1.189643
v 0.412494 2.638174 1.189643
v 0.408562 1.374902 1.187541
v 0.408562 2.638174 1.187541
v 0.405115 1.374902 1.184713
v 0.405115 2.638174 1.184713
v 0.402286 1.374902 1.181266
v 0.402286 2.638174 1.181266
v 0.400184 1.374902 1.177333
v 0.400184 2.638174 1.177333
v 0.398890 1.374902 1.173066
v 0.398890 2.638174 1.173066
v 0.398453 1.374902 1.168629
v 0.398453 2.638174 1.168629
v 0.398890 1.374902 1.164191
v 0.398890 2.638174 1.164191
v 0.400184 1.374902 1.159924
v 0.400184 2.638174 1.159924
v 0.402286 1.374902 1.155992
v 0.402286 2.638174 1.155992
v 0.405115 1.374902 1.152545
v 0.405115 2.638174 1.152545
v 0.408562 1.374902 1.149716
v 0.408562 2.638174 1.149716
v 0.412495 1.374902 1.147614
v 0.412495 2.638174 1.147614
v 0.416762 1.374902 1.146320
v 0.416762 2.638174 1.146320
vn 0.0980 0.0000 -0.9952
vn 0.2903 0.0000 -0.9569
vn 0.4714 0.0000 -0.8819
vn 0.6344 0.0000 -0.7730
vn 0.7730 0.0000 -0.6344
vn 0.8819 0.0000 -0.4714
vn 0.9569 0.0000 -0.2903
vn 0.9952 0.0000 -0.0980
vn 0.9952 0.0000 0.0980
vn 0.9569 0.0000 0.2903
vn 0.8819 0.0000 0.4714
vn 0.7730 0.0000 0.6344
vn 0.6344 0.0000 0.7730
vn 0.4714 0.0000 0.8819
vn 0.2903 0.0000 0.9569
vn 0.0980 0.0000 0.9952
vn -0.0980 0.0000 0.9952
vn -0.2903 0.0000 0.9569
vn -0.4714 0.0000 0.8819
vn -0.6344 0.0000 0.7730
vn -0.7730 0.0000 0.6344
vn -0.8819 0.0000 0.4714
vn -0.9569 0.0000 0.2903
vn -0.9952 0.0000 0.0980
vn -0.9952 0.0000 -0.0980
vn -0.9569 0.0000 -0.2903
vn -0.8819 0.0000 -0.4714
vn -0.7730 0.0000 -0.6344
vn -0.6344 0.0000 -0.7730
vn -0.4714 0.0000 -0.8819
vn 0.0000 1.0000 0.0000
vn -0.2903 0.0000 -0.9569
vn -0.0980 0.0000 -0.9952
vn 0.0000 -1.0000 -0.0000
usemtl None
s off
f 1//1 2//1 4//1 3//1
f 3//2 4//2 6//2 5//2
f 5//3 6//3 8//3 7//3
f 7//4 8//4 10//4 9//4
f 9//5 10//5 12//5 11//5
f 11//6 12//6 14//6 13//6
f 13//7 14//7 16//7 15//7
f 15//8 16//8 18//8 17//8
f 17//9 18//9 20//9 19//9
f 19//10 20//10 22//10 21//10
f 21//11 22//11 24//11 23//11
f 23//12 24//12 26//12 25//12
f 25//13 26//13 28//13 27//13
f 27//14 28//14 30//14 29//14
f 29//15 30//15 32//15 31//15
f 31//16 32//16 34//16 33//16
f 33//17 34//17 36//17 35//17
f 35//18 36//18 38//18 37//18
f 37//19 38//19 40//19 39//19
f 39//20 40//20 42//20 41//20
f 41//21 42//21 44//21 43//21
f 43//22 44//22 46//22 45//22
f 45//23 46//23 48//23 47//23
f 47//24 48//24 50//24 49//24
f 49//25 50//25 52//25 51//25
f 51//26 52//26 54//26 53//26
f 53//27 54//27 56//27 55//27
f 55//28 56//28 58//28 57//28
f 57//29 58//29 60//29 59//29
f 59//30 60//30 62//30 61//30
f 4//31 2//31 64//31 62//31 60//31 58//31 56//31 54//31 52//31 50//31 48//31 46//31 44//31 42//31 40//31 38//31 36//31 34//31 32//31 30//31 28//31 26//31 24//31 22//31 20//31 18//31 16//31 14//31 12//31 10//31 8//31 6//31
f 61//32 62//32 64//32 63//32
f 63//33 64//33 2//33 1//33
f 1//34 3//34 5//34 7//34 9//34 11//34 13//34 15//34 17//34 19//34 21//34 23//34 25//34 27//34 29//34 31//34 33//34 35//34 37//34 39//34 41//34 43//34 45//34 47//34 49//34 51//34 53//34 55//34 57//34 59//34 61//34 63//34
o Cone
v 0.421199 2.517434 1.052532
v 0.444084 2.517434 1.054786
v 0.466090 2.517434 1.061461
v 0.486370 2.517434 1.072301
v 0.504146 2.517434 1.086890
v 0.518734 2.517434 1.104665
v 0.529575 2.517434 1.124946
v 0.536250 2.517434 1.146951
v 0.538504 2.517434 1.169837
v 0.536250 2.517434 1.192722
v 0.529575 2.517434 1.214727
v 0.518734 2.517434 1.235008
v 0.504146 2.517434 1.252784
v 0.486370 2.517434 1.267372
v 0.466090 2.517434 1.278212
v 0.444084 2.517434 1.284887
v 0.421199 2.517434 1.287141
v 0.398314 2.517434 1.284887
v 0.376308 2.517434 1.278212
v 0.356028 2.517434 1.267372
v 0.338252 2.517434 1.252784
v 0.323664 2.517434 1.235008
v 0.312823 2.517434 1.214727
v 0.421199 2.752044 1.169837
v 0.306148 2.517434 1.192721
v 0.303894 2.517434 1.169836
v 0.306148 2.517434 1.146951
v 0.312823 2.517434 1.124946
v 0.323664 2.517434 1.104665
v 0.338252 2.517434 1.086889
v 0.356028 2.517434 1.072301
v 0.376309 2.517434 1.061461
v 0.398314 2.517434 1.054786
vn 0.0878 0.4455 -0.8910
vn 0.2599 0.4455 -0.8567
vn 0.4220 0.4455 -0.7896
vn 0.5680 0.4455 -0.6921
vn 0.6921 0.4455 -0.5680
vn 0.7896 0.4455 -0.4220
vn 0.8567 0.4455 -0.2599
vn 0.8910 0.4455 -0.0877
vn 0.8910 0.4455 0.0877
vn 0.8567 0.4455 0.2599
vn 0.7896 0.4455 0.4220
vn 0.6921 0.4455 0.5680
vn 0.5680 0.4455 0.6921
vn 0.4220 0.4455 0.7896
vn 0.2599 0.4455 0.8567
vn 0.0878 0.4455 0.8910
vn -0.0878 0.4455 0.8910
vn -0.2599 0.4455 0.8567
vn -0.4220 0.4455 0.7896
vn -0.5680 0.4455 0.6921
vn -0.6921 0.4455 0.5680
vn -0.7896 0.4455 0.4220
vn -0.8567 0.4455 0.2599
vn -0.8910 0.4455 0.0878
vn -0.8910 0.4455 -0.0878
vn -0.8567 0.4455 -0.2599
vn -0.7896 0.4455 -0.4220
vn -0.6921 0.4455 -0.5680
vn -0.5680 0.4455 -0.6921
vn -0.4220 0.4455 -0.7896
vn -0.2599 0.4455 -0.8567
vn -0.0878 0.4455 -0.8910
vn 0.0000 -1.0000 0.0000
usemtl None
s off
f 65//35 88//35 66//35
f 66//36 88//36 67//36
f 67//37 88//37 68//37
f 68//38 88//38 69//38
f 69//39 88//39 70//39
f 70//40 88//40 71//40
f 71//41 88//41 72//41
f 72//42 88//42 73//42
f 73//43 88//43 74//43
f 74//44 88//44 75//44
f 75//45 88//45 76//45
f 76//46 88//46 77//46
f 77//47 88//47 78//47
f 78//48 88//48 79//48
f 79//49 88//49 80//49
f 80//50 88//50 81//50
f 81//51 88//51 82//51
f 82//52 88//52 83//52
f 83//53 88//53 84//53
f 84//54 88//54 85//54
f 85//55 88//55 86//55
f 86//56 88//56 87//56
f 87//57 88//57 89//57
f 89//58 88//58 90//58
f 90//59 88//59 91//59
f 91//60 88//60 92//60
f 92//61 88//61 93//61
f 93//62 88//62 94//62
f 94//63 88//63 95//63
f 95//64 88//64 96//64
f 96//65 88//65 97//65
f 97//66 88//66 65//66
f 65//67 66//67 67//67 68//67 69//67 70//67 71//67 72//67 73//67 74//67 75//67 76//67 77//67 78//67 79//67 80//67 81//67 82//67 83//67 84//67 85//67 86//67 87//67 89//67 90//67 91//67 92//67 93//67 94//67 95//67 96//67 97//67
